HIERARCHY
ROOT Hips
{
  OFFSET 57.8838 95.319 338.509
  CHANNELS 6 Xposition Yposition Zposition Zrotation Xrotation Yrotation
  JOINT LeftUpLeg
  {
    OFFSET 8.64259 1.95398 -2.38835
    CHANNELS 3 Zrotation Xrotation Yrotation
    JOINT LeftLeg
    {
      OFFSET 43.7702 0 0
      CHANNELS 3 Zrotation Xrotation Yrotation
      JOINT LeftFoot
      {
        OFFSET 40.6238 0 0
        CHANNELS 3 Zrotation Xrotation Yrotation
        JOINT LeftToeBase
        {
          OFFSET 12.7242 0 0
          CHANNELS 3 Zrotation Xrotation Yrotation
          End Site
          {
            OFFSET 0 0 0
          }
        }
      }
    }
  }
  JOINT RightUpLeg
  {
    OFFSET -8.2249 1.95398 -2.59336
    CHANNELS 3 Zrotation Xrotation Yrotation
    JOINT RightLeg
    {
      OFFSET 43.5653 0 0
      CHANNELS 3 Zrotation Xrotation Yrotation
      JOINT RightFoot
      {
        OFFSET 40.6238 0 0
        CHANNELS 3 Zrotation Xrotation Yrotation
        JOINT RightToeBase
        {
          OFFSET 12.7242 0 0
          CHANNELS 3 Zrotation Xrotation Yrotation
          End Site
          {
            OFFSET 0 0 0
          }
        }
      }
    }
  }
  JOINT Spine
  {
    OFFSET 0.165834 0.87714 6.61349
    CHANNELS 3 Zrotation Xrotation Yrotation
    JOINT Spine1
    {
      OFFSET 7.38963 1.71661e-005 0
      CHANNELS 3 Zrotation Xrotation Yrotation
      JOINT Spine2
      {
        OFFSET 11.9445 1.14441e-005 0
        CHANNELS 3 Zrotation Xrotation Yrotation
        JOINT Spine3
        {
          OFFSET 14.7254 4.19617e-005 0
          CHANNELS 3 Zrotation Xrotation Yrotation
          JOINT Spine4
          {
            OFFSET 10.9679 0 0
            CHANNELS 3 Zrotation Xrotation Yrotation
            JOINT RightShoulder
            {
              OFFSET 2.46616 -1.6653 3.69651
              CHANNELS 3 Zrotation Xrotation Yrotation
              JOINT RightArm
              {
                OFFSET 13.0012 0 0
                CHANNELS 3 Zrotation Xrotation Yrotation
                JOINT RightForeArm
                {
                  OFFSET 28.7848 1.62311e-005 0
                  CHANNELS 3 Zrotation Xrotation Yrotation
                  JOINT RightHand
                  {
                    OFFSET 26.5688 1.62095e-005 0
                    CHANNELS 3 Zrotation Xrotation Yrotation
                    End Site
                    {
                      OFFSET 0 0 0
                    }
                  }
                }
              }
            }
            JOINT LeftShoulder
            {
              OFFSET 2.38034 -1.29275 -3.7523
              CHANNELS 3 Zrotation Xrotation Yrotation
              JOINT LeftArm
              {
                OFFSET 16.3182 6.07031e-005 0
                CHANNELS 3 Zrotation Xrotation Yrotation
                JOINT LeftForeArm
                {
                  OFFSET 27.0901 0 0
                  CHANNELS 3 Zrotation Xrotation Yrotation
                  JOINT LeftHand
                  {
                    OFFSET 24.5451 1.51738e-005 0
                    CHANNELS 3 Zrotation Xrotation Yrotation
                    End Site
                    {
                      OFFSET 0 0 0
                    }
                  }
                }
              }
            }
            JOINT Neck
            {
              OFFSET 5.0226 -0.0266342 0
              CHANNELS 3 Zrotation Xrotation Yrotation
              JOINT Head
              {
                OFFSET 6.69364 2.86102e-005 0
                CHANNELS 3 Zrotation Xrotation Yrotation
                End Site
                {
                  OFFSET 0 0 0
                }
              }
            }
          }
        }
      }
    }
  }
}
MOTION
Frames:	18
Frame Time:	0.0416667
249.64 99.5561 -233.457 -92.7192 -59.5485 -91.7708 -179.523 -1.03676 86.8539 -8.62328 15.5682 1.63227 58.401 3.42442 10.8016 38.9738 4.18357 1.29044 172.626 3.4785 93.4711 -20.5974 -8.10709 1.86892 67.5099 -5.01506 5.46616 30.2043 -1.90195 1.42445 -0.543943 7.48349 -90.0204 11.9078 -1.0912 0.0766143 0.237318 -1.08677 0.124562 -22.3014 -1.06375 -0.254911 -2.28873 -1.06377 -0.254929 95.7149 -53.8428 -91.5465 12.7399 -35.4291 -26.8597 14.0173 18.5077 -1.94474 -24.4187 0.580257 -7.97508 -80.6124 -53.4832 93.0585 -39.39 -21.1915 -21.0247 1.54371 68.8898 0.00872311 1.74981 -0.206746 -8.01808 10.9286 -1.01341 -27.0437 -14.7156 2.56863 25.714 
249.477 99.4951 -233.391 -92.6056 -59.579 -91.9447 -179.419 -1.03432 86.7791 -8.58806 15.5414 1.42596 58.6973 3.59187 10.3694 38.2723 3.89025 1.29733 171.913 3.60665 92.8701 -20.9185 -8.30913 2.51549 67.9752 -5.97688 5.71928 30.0061 -1.64321 1.20026 -0.524874 7.50888 -89.9953 11.8571 -1.04151 0.120669 0.186518 -1.03518 0.166394 -22.3519 -1.02961 -0.197955 -2.33922 -1.02961 -0.19796 95.336 -54.1056 -92.0751 13.4196 -34.3353 -25.811 13.3544 16.1619 -2.80302 -23.51 0.314413 -6.76776 -80.8799 -53.135 92.6496 -39.9357 -21.0188 -21.562 1.51397 68.6834 0.00864255 1.73251 -0.195072 -7.84874 11.9791 -1.12533 -27.16 -15.4145 2.54376 26.0321 
249.261 99.627 -233.3 -92.8777 -59.6273 -92.2306 -179.246 -1.41552 86.8584 -8.33779 15.6886 1.35685 58.5775 3.663 10.7661 38.6031 3.99538 0.471356 173.033 3.20456 93.9697 -20.232 -3.46675 0.767126 68.7008 -4.284 7.59016 28.8565 -0.19244 2.64036 -0.516061 7.53726 -90.0148 11.8002 -1.0332 0.08011 0.12961 -1.02865 0.125507 -22.4087 -1.00951 -0.234146 -2.39608 -1.00948 -0.234141 95.4491 -53.6752 -91.9607 14.6498 -33.6005 -24.4244 12.3779 14.4264 -4.4369 -21.2791 0.0331111 -5.41903 -80.7372 -53.2085 92.8619 -40.1787 -20.6006 -21.7706 1.25799 68.305 0.00849888 1.94147 -0.201185 -7.64584 13.5343 -0.849523 -26.69 -16.6663 2.73928 26.3233 
249.188 99.6929 -233.182 -93.0458 -59.8187 -92.2318 -179.128 -1.68905 87.0256 -8.1662 16.22 1.35922 58.4547 3.61985 10.9817 38.3546 3.90191 0.699401 173.571 2.7435 94.5174 -19.7722 -0.423977 -0.0587666 69.3829 -3.52852 9.66608 28.1352 0.667318 3.6548 -0.531671 7.52728 -90.0335 11.82 -1.0729 0.0473744 0.149532 -1.06977 0.0945417 -22.389 -1.03756 -0.27731 -2.37637 -1.03752 -0.277302 95.3014 -53.7239 -92.1731 15.8693 -32.6982 -22.4325 11.0841 13.2843 -6.20811 -17.9787 0.0718136 -5.74049 -80.6407 -53.2264 93.0043 -40.1783 -20.6925 -21.5069 1.33308 68.2972 0.00849598 1.32247 -0.238056 -8.99953 14.5292 -0.329853 -26.0564 -17.6203 3.12172 26.0845 
249.144 99.6956 -233.167 -93.3417 -59.8463 -92.5659 -179.091 -1.86622 86.9752 -8.14328 15.8485 1.34815 58.5666 3.63392 10.6288 38.543 3.97813 0.657767 173.167 2.57857 94.2632 -19.9163 -0.185966 0.217392 69.8607 -3.83344 10.2707 27.7335 1.18147 3.43918 -0.516981 7.5247 -90.0587 11.8249 -1.05572 -0.00472854 0.154366 -1.05488 0.0417451 -22.384 -1.00549 -0.321837 -2.37135 -1.00546 -0.32182 95.4064 -53.5305 -92.0414 16.688 -32.4447 -20.7709 10.5529 11.9735 -8.73899 -21.8746 -0.438294 -2.90854 -80.7533 -53.8127 92.8704 -39.9873 -20.8165 -21.8222 1.31756 69.1182 0.00881421 1.75161 -0.206523 -7.89662 14.4653 0.348545 -25.6492 -17.503 3.64304 26.3823 
249.141 99.6698 -233.203 -93.0714 -59.6722 -92.5065 -179.229 -1.70958 86.7688 -8.11114 15.264 1.34028 58.8124 4.09507 10.9196 38.3358 3.8759 0.203309 173.157 2.82009 94.1291 -20.0906 -0.407841 0.185861 69.9549 -4.00089 10.1123 27.8104 1.08299 3.47353 -0.495627 7.49413 -90.0577 11.886 -1.01273 -0.00638207 0.215431 -1.01202 0.038197 -22.3227 -0.963986 -0.310483 -2.31002 -0.963972 -0.310483 95.778 -53.3191 -91.5146 17.5033 -32.5561 -19.3264 9.84639 11.149 -11.0641 -23.2454 -0.741719 -1.5089 -80.704 -54.1594 92.9597 -39.4526 -20.704 -21.4974 1.07022 68.5239 0.00858136 1.97856 -0.211091 -7.84889 14.9351 1.02263 -24.8009 -17.7944 4.15077 26.0484 
249.11 99.6046 -233.252 -93.2402 -59.4439 -92.56 -179.029 -1.86136 86.9516 -8.06727 15.5746 1.24775 58.6914 3.7365 10.6529 38.9201 4.15546 1.17967 173.572 2.77601 94.4809 -20.1309 -0.21967 -0.119121 69.7778 -4.31741 9.91943 28.2273 0.579011 3.11338 -0.478362 7.49957 -90.0686 11.875 -0.983557 -0.0313769 0.204428 -0.983984 0.0119409 -22.3335 -0.928633 -0.325552 -2.32082 -0.928645 -0.325546 95.7203 -53.3664 -91.595 18.5182 -31.9802 -17.698 8.70412 10.5963 -12.4303 -19.5146 -0.577749 -1.78787 -80.6402 -53.8087 93.0342 -39.9291 -20.9516 -21.4476 1.50386 68.6575 0.00863254 2.071 -0.21705 -8.12588 15.5978 1.62857 -24.224 -18.3199 4.64393 25.7692 
248.899 99.5793 -233.262 -93.5265 -59.8332 -93.083 -179.293 -2.0054 86.719 -8.14206 15.5975 1.42588 58.7328 3.79207 10.4994 39.2701 4.32488 1.70528 173.579 2.56114 94.4675 -20.1042 0.868461 -0.324656 70.2312 -4.43214 10.3899 28.0539 0.792825 3.1987 -0.56179 7.52462 -90.0407 11.8254 -1.1363 0.0397885 0.154928 -1.13346 0.0897491 -22.384 -1.09571 -0.303596 -2.37137 -1.09574 -0.303613 95.7149 -53.5976 -91.5756 19.0234 -31.6183 -16.7606 7.99668 10.0336 -13.3372 -19.0604 -0.556961 -1.82918 -80.6045 -53.5024 93.071 -40.0861 -21.2168 -21.4109 1.9538 68.7114 0.00865336 1.508 -0.228809 -9.15834 16.6191 2.2004 -23.2105 -19.04 5.1063 24.8047 
248.288 99.5482 -233.048 -94.136 -60.5816 -93.9626 -179.119 -2.50227 86.7569 -8.24778 16.4889 1.35575 58.756 3.98297 10.3893 39.8962 4.63196 2.51241 173.344 1.88168 94.3613 -19.9545 0.455967 -0.244106 70.0717 -4.1522 9.35199 28.5987 0.103761 3.29162 -0.640628 7.56284 -90.0646 11.7489 -1.30442 0.00888038 0.078624 -1.30275 0.0662789 -22.4615 -1.24678 -0.383634 -2.44881 -1.24675 -0.383626 95.9444 -53.2669 -91.2726 20.4065 -29.88 -15.7534 7.47456 9.3049 -13.1196 -18.7506 -0.536599 -1.97466 -80.6559 -53.8875 93.0155 -39.6879 -21.2641 -21.2043 1.74546 68.1501 0.00844154 1.70467 -0.234186 -9.04472 17.221 2.80178 -21.6756 -19.1963 5.41504 24.1976 
247.859 99.369 -232.9 -93.7037 -60.6101 -93.7395 -179.528 -2.42969 86.5529 -8.38302 15.9282 1.72268 58.5933 4.10756 9.97209 40.7541 5.04658 3.27778 173.534 2.01443 94.5984 -20.1847 -0.340554 -0.317645 69.7839 -4.83778 7.67966 29.2156 -0.674132 3.43013 -0.65616 7.54948 -90.0927 11.7759 -1.34843 -0.0413185 0.105612 -1.34893 0.0180665 -22.4347 -1.27367 -0.444738 -2.42208 -1.27364 -0.444725 95.6316 -53.5593 -91.704 21.6066 -27.6218 -14.635 6.50962 6.262 -12.0251 -16.9942 -0.323908 -3.06884 -80.6678 -53.9737 93.0026 -39.2082 -21.4841 -20.6008 1.47642 67.3555 0.0780578 1.51522 -0.250243 -9.5567 18.4607 3.19873 -19.5603 -19.8017 5.49787 22.6721 
247.043 99.0332 -232.643 -93.1093 -59.6934 -93.0834 -179.569 -2.03252 86.8634 -9.61039 14.8261 1.92242 58.4147 5.45634 10.7541 42.719 5.9449 3.73685 173.47 2.34249 94.8577 -21.3819 -1.15159 -0.0641587 70.6884 -6.07651 7.48146 29.2369 -0.701369 3.43891 -0.567936 7.55982 -90.1594 11.7536 -1.20438 -0.190709 0.0832444 -1.21159 -0.137509 -22.4556 -1.09135 -0.543883 -2.44295 -1.09138 -0.5439 95.6714 -53.2361 -91.683 23.3083 -24.7115 -14.2874 5.70338 2.26182 -10.6766 -15.6662 -0.347768 -2.65276 -80.3276 -54.1053 93.5013 -38.6986 -21.437 -19.793 1.92711 66.705 -0.72074 0.519005 -0.252187 -10.842 20.4944 3.19499 -18.2825 -21.1294 5.1105 22.9307 
246.376 98.1496 -232.183 -93.6788 -59.2706 -94.0061 179.036 1.62973 85.9929 -18.1122 11.6249 1.79678 58.2846 8.3383 11.9336 48.0724 8.5419 5.27781 172.589 3.50931 94.0905 -25.8868 -2.53433 0.384392 73.5336 -7.03591 8.30059 29.7247 -1.30049 2.71254 -0.487964 7.60565 -90.1426 11.6622 -1.0374 -0.17602 -0.00838304 -1.04416 -0.130197 -22.5463 -0.936552 -0.479697 -2.53363 -0.936556 -0.479699 95.4283 -53.0098 -92.0734 25.6527 -20.1247 -13.5021 5.44728 -1.8405 -9.6266 -19.0928 -0.63575 -1.35098 -80.3537 -54.0777 93.4622 -38.0799 -21.4936 -18.7831 3.68469 65.5051 -3.23015 0.44055 -0.217308 -9.53176 22.2894 3.26311 -14.4959 -22.4818 4.71962 18.459 
245.464 96.9345 -231.604 -95.8373 -60.0112 -96.0396 179.508 11.4864 85.4957 -38.822 8.89522 2.42105 57.6918 6.30043 8.91353 51.6179 11.2997 11.5008 171.554 4.01578 93.8278 -31.2688 -0.993732 0.643683 78.2675 -7.27408 10.7871 28.9602 -0.334268 2.82224 -0.343542 7.85536 -90.2437 11.1616 -0.796977 -0.407259 -0.509152 -0.814121 -0.37179 -23.0451 -0.637729 -0.627953 -3.03243 -0.637739 -0.62796 95.2463 -52.6011 -92.3973 27.5248 -14.5084 -12.3667 3.92808 -7.61394 -10.5714 -17.6525 -0.727131 -0.372398 -80.3505 -55.3202 93.5226 -37.5173 -21.0669 -19.3313 5.30781 64.3593 -5.55291 -1.16288 -0.150282 -9.98993 23.3631 1.82431 -11.3122 -20.2086 2.99218 16.7785 
243.97 96.364 -230.269 -96.2548 -58.8762 -96.4791 -177.178 20.3157 84.9986 -50.8426 6.49782 1.42969 58.4703 6.60656 8.97706 49.1157 10.5091 14.7418 171.376 2.65616 93.7026 -32.075 -1.13157 0.560836 80.0874 -8.32941 11.2319 30.683 -2.52338 1.72698 -0.00411961 7.97609 -90.2709 10.9212 -0.133417 -0.525828 -0.749829 -0.156411 -0.51946 -23.2841 0.0307783 -0.541619 -3.27146 0.0307914 -0.541619 95.4542 -52.0561 -92.1535 29.3299 -11.9988 -11.3296 1.54266 -14.8298 -13.4418 -16.152 -1.32679 4.33482 -80.5965 -55.4029 93.1753 -36.6385 -21.1457 -17.7745 6.72241 64.8004 -7.90944 -0.980115 -0.156639 -10.1124 22.2682 0.786967 -10.0972 -17.7134 1.84646 16.6358 
242.535 96.5572 -228.398 -95.9078 -58.103 -97.7932 -176.346 24.2536 83.4689 -42.7375 6.08081 -0.786482 58.079 4.73181 7.7519 47.4538 9.4539 13.9792 170.965 0.398588 91.8672 -30.0841 -0.804686 0.0255017 80.1941 -9.35674 12.9937 32.663 -5.19213 -0.58085 0.208742 8.05704 -90.0567 10.7606 0.389553 -0.148662 -0.910276 0.382654 -0.165676 -23.4459 0.416252 -0.024701 -3.43328 0.416243 -0.0247194 96.0237 -52.0827 -91.2901 29.9413 -12.5629 -12.0533 0.176692 -16.7411 -15.3438 -16.9515 -1.53852 5.4202 -81.2771 -55.1714 92.1915 -35.044 -19.77 -15.0655 4.95891 60.1976 -7.32459 1.62208 -0.36842 -12.2184 22.6886 -0.236782 -8.38871 -17.4785 0.499778 15.4919 
240.686 96.8117 -225.771 -94.7212 -58.0779 -98.0061 179.581 23.9272 83.6848 -21.9349 4.54213 -1.33177 54.2339 -1.43119 5.43903 38.8133 4.59192 12.3409 170.571 -2.35254 91.0124 -26.5859 -0.410476 -0.480207 77.9615 -10.826 11.3528 33.9587 -6.80056 0.965898 0.261314 8.17792 -89.9211 10.5178 0.556787 0.107128 -1.15299 0.560954 0.0825241 -23.6889 0.498832 0.26952 -3.67627 0.498841 0.269516 95.8954 -52.0329 -91.4898 28.5579 -14.667 -13.568 -1.16837 -14.8209 -19.3339 -18.2022 -1.57035 4.86173 -81.2497 -55.722 92.2628 -35.6945 -23.9846 -15.32 3.37117 65.8161 -2.26173 -2.48342 -0.0844436 -10.6004 22.3779 -0.463992 -7.42892 -14.1656 0.408015 15.273 
238.398 96.6681 -222.159 -91.6411 -57.0191 -94.3588 175.806 24.0604 86.5577 -7.00502 5.953 -0.488557 53.9123 -4.85806 3.27279 34.5092 2.28696 13.4742 170.914 -4.86884 91.6471 -23.6356 0.139803 -0.821801 76.2417 -10.6063 13.8699 34.7504 -7.75507 1.71609 0.448528 8.16613 -90.0175 10.5423 0.885384 -0.114066 -1.12839 0.879527 -0.152935 -23.6659 0.878731 0.157328 -3.65328 0.878747 0.157323 96.5303 -50.7796 -90.6649 28.2758 -16.0388 -15.7199 -2.79601 -13.9974 -22.8525 -17.649 -1.26519 3.169 -81.307 -55.8839 92.1911 -35.6442 -25.3967 -13.226 2.67878 67.544 -0.958705 -1.6765 -0.122371 -9.66634 25.8844 -0.952217 -4.36875 -17.6131 -1.0792 12.7846 
235.437 96.1427 -216.842 -91.4938 -55.8078 -93.3987 175.66 23.9403 86.789 -8.70702 7.99554 0.0850617 54.6722 -4.13555 3.01943 34.3384 2.18643 12.1179 169.905 -6.14433 90.0431 -28.0166 -3.63787 -0.529261 74.1747 -7.05703 16.259 36.6261 -10.2342 1.18802 0.426902 8.31064 -89.9529 10.2529 0.872072 0.0192792 -1.41776 0.872088 -0.0191243 -23.9551 0.825964 0.280508 -3.94243 0.82596 0.2805 96.0777 -51.3399 -91.2944 26.9658 -17.57 -17.8963 -3.76143 -11.9812 -25.895 -17.1848 -0.987787 1.47977 -81.5354 -54.9913 91.8115 -35.4875 -26.5758 -10.6549 4.02547 66.5985 -1.80148 -2.39297 -0.0917486 -10.8501 25.8641 -0.774351 -5.34868 -17.4826 -0.660591 13.6991 
